# Blender v2.79 (sub 0) OBJ File: 'tree1.blend'
# www.blender.org
mtllib tree1M.mtl
o 柱体
v -0.000000 -0.002200 -0.508200
v -0.000000 3.962200 -0.254100
v 0.440114 -0.002200 -0.254100
v 0.220057 3.962200 -0.127050
v 0.440114 -0.002200 0.254100
v 0.220057 3.962200 0.127050
v -0.000000 -0.002200 0.508200
v -0.000000 3.962200 0.254100
v -0.440114 -0.002200 0.254100
v -0.220057 3.962200 0.127050
v -0.440114 -0.002200 -0.254100
v -0.220057 3.962200 -0.127050
v 0.007959 5.891571 1.963039
v -1.285055 5.533435 -1.753376
v 0.970002 5.432264 -2.063792
v 2.262530 5.432265 0.284780
v -0.391965 7.072827 -0.284778
v -0.007959 3.586882 1.963039
v 1.864503 3.586888 0.614185
v 0.391964 2.405626 -0.284777
v -0.745583 2.632395 0.541698
v -2.262530 4.046188 0.284779
v -1.147401 3.586885 -1.592817
v 1.160298 3.586886 -1.583447
v 0.709677 4.857123 2.184155
v -1.957592 5.524017 1.146048
v 0.745584 6.846057 0.541699
vn 0.7814 -0.0576 0.6214
vn -0.3543 0.0375 0.9344
vn -0.1398 -0.0912 -0.9860
vn 0.8755 -0.0351 -0.4819
vn 0.5792 0.5052 0.6398
vn -0.3510 0.8017 0.4838
vn -0.7690 0.6144 -0.1764
vn -0.0650 0.7083 -0.7029
vn 0.6110 0.7167 -0.3363
vn 0.4477 0.8015 -0.3964
vn -0.1796 0.8573 0.4825
vn -0.9247 0.3152 -0.2135
vn -0.3743 -0.0560 0.9256
vn 0.5746 0.5242 0.6285
vn 0.0039 -0.2515 -0.9678
vn -0.8661 -0.1016 -0.4895
vn -0.6080 -0.3024 0.7341
vn 0.5287 -0.4264 0.7339
vn 0.9217 -0.2515 -0.2953
vn 0.0027 -0.7406 -0.6720
vn -0.3980 -0.8631 -0.3110
vn -0.6483 -0.7330 -0.2057
vn -0.5792 -0.5052 0.6398
vn 0.6887 -0.6906 -0.2207
vn 0.1796 -0.8573 0.4825
vn 0.3486 -0.8027 0.4839
vn 0.4992 0.0554 -0.8647
vn 0.9985 0.0554 0.0000
vn 0.4992 0.0554 0.8647
vn -0.4992 0.0554 0.8647
vn 0.0000 1.0000 0.0000
vn -0.9985 0.0554 0.0000
vn -0.4992 0.0554 -0.8647
vn 0.0000 -1.0000 0.0000
usemtl green
s off
f 19//1 16//1 25//1
f 18//2 25//2 26//2
f 23//3 14//3 15//3
f 24//4 15//4 16//4
f 13//5 16//5 27//5
f 26//6 13//6 17//6
f 14//7 26//7 17//7
f 15//8 14//8 17//8
f 16//9 15//9 27//9
f 27//10 15//10 17//10
f 17//11 13//11 27//11
f 22//12 26//12 14//12
f 26//13 25//13 13//13
f 25//14 16//14 13//14
f 24//15 23//15 15//15
f 14//16 23//16 22//16
f 22//17 18//17 26//17
f 18//18 19//18 25//18
f 19//19 24//19 16//19
f 20//20 23//20 24//20
f 20//21 21//21 23//21
f 21//22 22//22 23//22
f 21//23 18//23 22//23
f 19//24 20//24 24//24
f 21//25 20//25 18//25
f 20//26 19//26 18//26
usemtl brown
f 2//27 3//27 1//27
f 4//28 5//28 3//28
f 6//29 7//29 5//29
f 8//30 9//30 7//30
f 10//31 8//31 6//31
f 9//32 12//32 11//32
f 12//33 1//33 11//33
f 7//34 9//34 11//34
f 2//27 4//27 3//27
f 4//28 6//28 5//28
f 6//29 8//29 7//29
f 8//30 10//30 9//30
f 6//31 4//31 10//31
f 4//31 2//31 10//31
f 2//31 12//31 10//31
f 9//32 10//32 12//32
f 12//33 2//33 1//33
f 11//34 1//34 3//34
f 3//34 5//34 11//34
f 5//34 7//34 11//34
